<svg width="71" height="20" viewBox="0 0 71 20" fill="none" xmlns="http://www.w3.org/2000/svg">
<g opacity="0.7">
<path d="M26.9311 0C23.1252 0 19.9889 2.98175 19.5651 6.81861C19.5651 6.8169 19.5635 6.81347 19.5618 6.81176C19.5618 6.82889 19.5602 6.84774 19.5585 6.86488C19.5288 7.14249 19.514 7.42181 19.514 7.70799C19.514 7.86394 19.5206 8.01988 19.5288 8.17411C19.453 12.7547 19.5371 20 19.5371 20H21.0327C21.0327 20 21.0195 14.9584 21.0195 12.376C21.0442 12.4034 21.069 12.4291 21.0921 12.4565C22.4492 14.2558 24.5599 15.4143 26.9311 15.4143C31.0271 15.4143 34.3465 11.963 34.3465 7.70799C34.3465 3.453 31.0271 0 26.9311 0ZM26.9311 13.8651C23.6579 13.8651 21.0047 11.1079 21.0047 7.70628C21.0047 4.30469 23.6579 1.54743 26.9311 1.54743C30.2043 1.54743 32.8575 4.30469 32.8575 7.70628C32.8575 11.1079 30.2043 13.8651 26.9311 13.8651Z" fill="#BBBBBB"/>
<path d="M14.826 7.43895C14.8078 6.90258 14.7386 6.38163 14.6215 5.87782C14.5044 5.33802 14.1235 4.38866 14.1218 4.40922C12.9313 1.80447 10.377 0 7.41545 0C3.32104 0 0 3.45129 0 7.70628C0 11.9613 3.32104 15.4126 7.41545 15.4126C9.93014 15.4126 12.1513 14.1102 13.4919 12.1206C13.4705 12.2132 13.4507 12.3057 13.4276 12.3983C13.4375 12.3897 13.4458 12.3811 13.454 12.3725V15.3029H14.8128C14.8128 12.6553 15.0255 10.0214 14.8243 7.43895H14.826ZM7.4171 13.8651C4.14388 13.8651 1.49068 11.1079 1.49068 7.70628C1.49068 4.30469 4.14223 1.54743 7.41545 1.54743C10.6887 1.54743 13.3419 4.30469 13.3419 7.70628C13.3419 11.1079 10.6887 13.8651 7.41545 13.8651H7.4171Z" fill="#BBBBBB"/>
<path d="M71 1.29723L69.9381 0.19535L63.6621 6.71579L57.3003 0.104526L56.2384 1.20812L62.6018 7.81938L56.2384 14.4306L57.3003 15.5342L63.6621 8.92297L69.9381 15.4434L71 14.3398L64.724 7.81938L71 1.29723Z" fill="#BBBBBB"/>
<path d="M52.5496 8.55453H53.1663C53.196 8.27692 53.2125 7.99416 53.2125 7.70798C53.2125 3.45128 49.8931 0.00170331 45.797 0.00170331C41.701 0.00170331 38.3816 3.45299 38.3816 7.70798C38.3816 11.963 41.7026 15.4143 45.797 15.4143C49.0834 15.4143 51.8686 13.1917 52.8415 10.1139H51.2535C50.3515 12.3194 48.2474 13.8651 45.797 13.8651C42.8008 13.8651 40.3257 11.5534 39.9283 8.55281H52.5512L52.5496 8.55453ZM39.9102 6.99511C40.2499 3.92939 42.7547 1.54913 45.7954 1.54913C48.8361 1.54913 51.3409 3.92939 51.6806 6.99511H39.9085H39.9102Z" fill="#BBBBBB"/>
</g>
</svg>
