<?xml version="1.0" encoding="UTF-8" standalone="no"?>
<svg
   width="992"
   height="277"
   viewBox="0 0 992 277"
   fill="none"
   version="1.1"
   id="svg13"
   sodipodi:docname="context-gray.svg"
   inkscape:version="1.2.1 (9c6d41e410, 2022-07-14)"
   xmlns:inkscape="http://www.inkscape.org/namespaces/inkscape"
   xmlns:sodipodi="http://sodipodi.sourceforge.net/DTD/sodipodi-0.dtd"
   xmlns="http://www.w3.org/2000/svg"
   xmlns:svg="http://www.w3.org/2000/svg">
  <sodipodi:namedview
     id="namedview15"
     pagecolor="#ffffff"
     bordercolor="#000000"
     borderopacity="0.25"
     inkscape:showpageshadow="2"
     inkscape:pageopacity="0.0"
     inkscape:pagecheckerboard="0"
     inkscape:deskcolor="#d1d1d1"
     showgrid="false"
     inkscape:zoom="0.85198556"
     inkscape:cx="490.61864"
     inkscape:cy="138.5"
     inkscape:window-width="2560"
     inkscape:window-height="1494"
     inkscape:window-x="-11"
     inkscape:window-y="-11"
     inkscape:window-maximized="1"
     inkscape:current-layer="svg13" />
  <g
     clip-path="url(#clip0_92_5)"
     id="g6"
     style="stroke:none;stroke-opacity:1;fill:#afafaf;fill-opacity:1">
    <path
       fill-rule="evenodd"
       clip-rule="evenodd"
       d="M0.00012207 -0.012207V190.25H23.1201V127.733H29.7121C31.6647 127.631 33.6182 127.917 35.4601 128.573C37.0146 129.409 38.3269 130.633 39.2701 132.125L82.2831 185.725C83.1163 187.259 84.4015 188.499 85.9641 189.277C87.5754 189.96 89.3144 190.291 91.0641 190.246H111.602L60.4521 125.663C59.4036 124.034 58.2151 122.499 56.9001 121.077C55.6414 119.735 54.232 118.543 52.7001 117.525C55.5791 115.7 58.1148 113.382 60.1911 110.679L108.37 59.3998H87.5701C85.7044 59.3099 83.8499 59.7343 82.2091 60.6268C80.7583 61.549 79.4708 62.7057 78.3991 64.0498L37.0651 108.35C36.0736 109.585 34.8151 110.579 33.3841 111.257C32.0006 111.769 30.5316 112.01 29.0571 111.967H23.1151V-0.012207H-0.00488281H0.00012207ZM178.312 62.1168C170.834 65.1449 164.11 69.774 158.612 75.6788C153.022 81.8151 148.776 89.0527 146.148 96.9268C140.379 115.058 140.379 134.532 146.148 152.663C148.786 160.513 153.031 167.727 158.612 173.846C164.1 179.746 170.828 184.357 178.312 187.346C186.598 190.596 195.439 192.197 204.339 192.06C213.176 192.193 221.953 190.592 230.173 187.346C237.633 184.345 244.339 179.736 249.812 173.846C255.392 167.727 259.637 160.513 262.276 152.663C268.047 134.532 268.047 115.057 262.276 96.9268C259.647 89.053 255.402 81.8157 249.812 75.6788C244.331 69.7853 237.631 65.1573 230.179 62.1168C221.969 58.8281 213.188 57.2037 204.345 57.3378C195.437 57.1992 186.59 58.8234 178.312 62.1168ZM175.083 161.123C168.667 152.469 165.459 140.392 165.46 124.892C165.374 117.865 166.177 110.856 167.85 104.031C169.192 98.4097 171.651 93.1165 175.083 88.4668C178.268 84.2841 182.44 80.9555 187.225 78.7788C192.619 76.4329 198.459 75.2872 204.339 75.4208C217.256 75.4208 226.9 79.7695 233.273 88.4668C239.646 97.1642 242.832 109.306 242.831 124.892C242.831 140.392 239.645 152.469 233.273 161.123C226.901 169.777 217.256 174.104 204.339 174.104C191.254 174.104 181.504 169.777 175.087 161.123H175.083ZM340.865 64.1828C340.643 62.7669 339.894 61.4873 338.768 60.6009C337.642 59.7145 336.222 59.2868 334.794 59.4038H320.977V190.25H344.098V93.8918C348.756 88.5688 354.28 84.0721 360.438 80.5918C366.259 77.3392 372.822 75.648 379.49 75.6828C388.703 75.6828 395.569 78.4161 400.09 83.8828C404.611 89.3494 406.871 97.0351 406.871 106.94V190.252H429.992V106.938C430.068 100.073 429.11 93.2368 427.15 86.6578C425.456 80.9202 422.622 75.583 418.819 70.9648C415.108 66.5795 410.418 63.1283 405.127 60.8898C399.13 58.4197 392.689 57.2106 386.204 57.3378C381.833 57.3059 377.474 57.8045 373.223 58.8228C369.279 59.791 365.464 61.2219 361.856 63.0858C358.259 64.9523 354.862 67.1812 351.717 69.7378C348.475 72.3745 345.451 75.2686 342.675 78.3918L340.865 64.1828ZM546.117 189.152C551.425 187.22 556.298 184.256 560.455 180.433L553.738 169.454C552.79 167.99 551.714 167.257 550.509 167.254C549.632 167.325 548.798 167.663 548.119 168.223C547.215 168.869 546.117 169.579 544.826 170.354C543.368 171.207 541.832 171.92 540.24 172.486C538.225 173.171 536.105 173.499 533.976 173.454C532.072 173.527 530.173 173.209 528.396 172.522C526.619 171.834 525.001 170.79 523.642 169.454C520.972 166.787 519.639 162.697 519.642 157.183V78.6498H557.488V61.9878H519.638V16.9118H508.012C506.715 16.853 505.444 17.2923 504.46 18.1398C503.547 18.9743 502.934 20.0862 502.716 21.3038L497.416 61.7328L475.975 64.4458V73.6118C475.916 74.3124 476.013 75.0174 476.258 75.6762C476.504 76.3349 476.893 76.9311 477.396 77.4218C478.366 78.249 479.609 78.6863 480.883 78.6488H496.641V158.732C496.641 169.582 499.418 177.892 504.973 183.662C510.528 189.432 518.474 192.317 528.812 192.317C534.725 192.321 540.589 191.249 546.117 189.152V189.152ZM621.939 110.552C623.489 99.1858 627.472 90.2948 633.887 83.8788C640.302 77.4628 649.021 74.2551 660.043 74.2558C664.867 74.1744 669.657 75.0753 674.122 76.9038C678.143 78.5901 681.739 81.1491 684.649 84.3958C687.601 87.7435 689.842 91.6559 691.237 95.8958C692.789 100.625 693.553 105.578 693.497 110.556H621.939V110.552ZM705.639 163.511C705.154 162.801 704.496 162.227 703.728 161.842C702.96 161.457 702.106 161.275 701.247 161.311C699.349 161.466 697.534 162.16 696.016 163.311C693.576 164.886 691.054 166.33 688.46 167.638C684.989 169.372 681.382 170.82 677.674 171.965C672.833 173.392 667.802 174.067 662.756 173.965C657.015 174.05 651.312 173.019 645.964 170.93C640.999 168.928 636.574 165.786 633.047 161.759C629.215 157.285 626.337 152.077 624.587 146.453C622.42 139.463 621.267 132.199 621.164 124.882H708.612C710.763 124.882 712.226 124.279 713.003 123.073C713.78 121.867 714.167 119.456 714.166 115.84C714.307 107.37 712.906 98.9447 710.032 90.9758C707.545 84.1302 703.651 77.8819 698.601 72.6338C693.702 67.6617 687.802 63.7871 681.293 61.2668C674.352 58.5917 666.967 57.2552 659.528 57.3278C650.749 57.1942 642.038 58.8916 633.951 62.3118C626.629 65.4442 620.066 70.1132 614.705 76.0028C609.346 81.9955 605.24 88.9995 602.628 96.6028C599.779 104.826 598.358 113.476 598.428 122.178C598.428 133.46 599.978 143.449 603.078 152.145C605.835 160.267 610.256 167.724 616.06 174.039C621.58 179.915 628.327 184.501 635.822 187.472C643.782 190.591 652.268 192.148 660.816 192.057C665.621 192.051 670.417 191.64 675.153 190.83C679.926 190.026 684.616 188.794 689.168 187.149C693.63 185.542 697.897 183.441 701.891 180.885C705.739 178.443 709.181 175.414 712.091 171.907L705.639 163.511ZM827.572 121.919L871.622 59.4018H850.442C849.247 59.3696 848.079 59.7591 847.142 60.5018C846.156 61.3334 845.306 62.3139 844.622 63.4078L816.472 104.742C815.04 106.978 813.952 109.416 813.242 111.975L781.072 62.8918C780.482 61.8819 779.693 61.0027 778.752 60.3078C777.493 59.6104 776.057 59.2975 774.622 59.4078H752.53L796.572 123.087L750.722 190.254H771.262C772.006 190.295 772.75 190.184 773.45 189.929C774.149 189.674 774.79 189.279 775.332 188.769C776.346 187.75 777.272 186.648 778.102 185.475L808.592 140.912C809.285 139.944 809.827 138.877 810.202 137.748C810.592 136.585 810.952 135.403 811.302 134.196L844.242 185.475C844.945 186.704 845.836 187.815 846.882 188.769C848.124 189.816 849.72 190.347 851.342 190.254H873.432L827.572 121.919ZM977.402 189.15C982.711 187.219 987.585 184.256 991.742 180.431L985.022 169.452C984.082 167.989 983.002 167.252 981.802 167.252C980.925 167.323 980.091 167.661 979.412 168.221C978.502 168.867 977.402 169.577 976.112 170.352C974.656 171.204 973.122 171.918 971.532 172.484C969.514 173.169 967.393 173.497 965.262 173.452C963.359 173.524 961.46 173.207 959.684 172.519C957.907 171.831 956.29 170.787 954.932 169.452C952.265 166.785 950.929 162.695 950.922 157.181V78.6498H988.772V61.9878H950.922V16.9118H939.302C938.005 16.8514 936.734 17.2909 935.752 18.1398C934.836 18.9724 934.22 20.0849 934.002 21.3038L928.712 61.7328L907.272 64.4458V73.6118C907.212 74.3123 907.309 75.0174 907.554 75.6762C907.8 76.335 908.189 76.9312 908.692 77.4218C909.66 78.2486 910.9 78.6859 912.172 78.6488H927.932V158.732C927.932 169.582 930.709 177.892 936.262 183.662C941.815 189.432 949.762 192.316 960.102 192.316C966.013 192.321 971.876 191.249 977.402 189.152V189.15Z"
       fill="white"
       id="path2"
       style="stroke:none;stroke-opacity:1;fill:#afafaf;fill-opacity:1" />
    <path
       fill-rule="evenodd"
       clip-rule="evenodd"
       d="M5.325 244.498C6.27364 243.192 7.46129 242.078 8.825 241.215C10.1645 240.421 11.6995 240.019 13.256 240.053C14.3423 240.034 15.4205 240.242 16.422 240.663C17.3667 241.082 18.18 241.75 18.775 242.595C19.4772 243.618 19.9756 244.768 20.243 245.98C20.6077 247.6 20.7782 249.258 20.751 250.918C20.751 254.54 20.015 257.329 18.543 259.285C17.8075 260.254 16.8457 261.029 15.7417 261.54C14.6376 262.052 13.4251 262.285 12.21 262.22C10.9086 262.239 9.61887 261.971 8.433 261.435C7.1874 260.809 6.11852 259.88 5.32399 258.735V244.498H5.325ZM4.599 237.467C4.54908 237.149 4.38066 236.861 4.1275 236.661C3.87435 236.462 3.55517 236.366 3.23399 236.392H0.125V275.787H5.325V262.772C6.28481 263.835 7.44498 264.698 8.739 265.312C10.1967 265.957 11.7796 266.269 13.373 266.227C15.1635 266.262 16.9381 265.884 18.5582 265.12C20.1783 264.357 21.6002 263.23 22.713 261.827C23.8486 260.382 24.7012 258.737 25.226 256.976C25.821 255.012 26.1151 252.97 26.098 250.918C26.1297 248.733 25.8656 246.554 25.313 244.44C24.8747 242.738 24.1155 241.136 23.076 239.719C22.1551 238.489 20.9487 237.502 19.561 236.843C18.1131 236.178 16.535 235.845 14.942 235.869C12.9921 235.833 11.0674 236.314 9.364 237.264C7.71293 238.214 6.25446 239.465 5.064 240.953L4.599 237.467ZM50.036 237.816C50.0072 237.413 49.8549 237.029 49.6 236.716C49.2675 236.465 48.8519 236.351 48.438 236.396H45.475V265.826H50.675V247.229C51.0073 246.298 51.4205 245.399 51.91 244.541C52.3228 243.81 52.8414 243.145 53.449 242.566C54.0117 242.039 54.6735 241.629 55.396 241.36C56.193 241.077 57.0343 240.939 57.88 240.953C58.4753 240.947 59.0694 241.005 59.652 241.128C60.0422 241.226 60.4412 241.284 60.843 241.302C61.0532 241.314 61.2601 241.245 61.422 241.111C61.5838 240.976 61.6885 240.785 61.715 240.576L62.092 236.712C61.6248 236.412 61.1087 236.195 60.567 236.073C59.9812 235.936 59.3814 235.869 58.78 235.873C56.9734 235.821 55.2091 236.425 53.813 237.573C52.334 238.873 51.1627 240.485 50.384 242.294L50.036 237.816ZM84.768 237.002C83.0862 237.683 81.5741 238.724 80.338 240.053C79.0816 241.433 78.1278 243.061 77.538 244.832C76.2406 248.91 76.2406 253.29 77.538 257.368C78.1303 259.133 79.0838 260.756 80.338 262.133C81.5719 263.46 83.085 264.496 84.768 265.168C86.6317 265.899 88.6202 266.26 90.622 266.229C92.6094 266.259 94.5834 265.898 96.432 265.168C98.1095 264.494 99.6174 263.457 100.848 262.133C102.102 260.756 103.056 259.133 103.648 257.368C104.945 253.29 104.945 248.91 103.648 244.832C103.058 243.061 102.104 241.433 100.848 240.053C99.6152 238.727 98.1082 237.686 96.432 237.002C94.5856 236.262 92.6107 235.897 90.622 235.927C88.6189 235.896 86.6295 236.261 84.768 237.002V237.002ZM84.042 259.271C82.5987 257.323 81.877 254.607 81.877 251.122C81.8577 249.541 82.0385 247.965 82.415 246.43C82.7164 245.166 83.2698 243.975 84.042 242.93C84.7581 241.989 85.6964 241.24 86.773 240.751C87.9862 240.224 89.2995 239.966 90.622 239.996C91.8647 239.909 93.1095 240.132 94.2451 240.644C95.3808 241.156 96.3719 241.941 97.13 242.93C98.5627 244.887 99.2793 247.618 99.28 251.123C99.28 254.609 98.5633 257.325 97.13 259.272C96.3694 260.257 95.3774 261.038 94.2421 261.548C93.1068 262.057 91.8633 262.278 90.622 262.192C87.678 262.191 85.4847 261.217 84.042 259.271V259.271ZM124.235 236.392V268.001C124.342 269.218 124.001 270.432 123.276 271.415C122.842 271.807 122.331 272.104 121.776 272.287C121.22 272.469 120.633 272.533 120.051 272.475C119.683 272.475 119.378 272.47 119.136 272.461C118.936 272.45 118.735 272.454 118.536 272.475C118.4 272.485 118.272 272.542 118.173 272.635C118.074 272.745 118.009 272.881 117.984 273.027L117.784 275.816C118.294 276.005 118.819 276.151 119.353 276.252C119.919 276.352 120.492 276.401 121.067 276.397C122.361 276.429 123.649 276.206 124.858 275.743C125.835 275.367 126.712 274.77 127.42 273.999C128.128 273.228 128.648 272.303 128.94 271.298C129.258 270.227 129.415 269.115 129.405 267.998V236.392H124.234H124.235ZM130.176 225.716C129.98 225.272 129.704 224.868 129.362 224.524C129.024 224.185 128.625 223.914 128.186 223.724C127.737 223.529 127.252 223.43 126.762 223.433C126.277 223.429 125.797 223.528 125.353 223.724C124.922 223.914 124.533 224.186 124.205 224.524C123.872 224.869 123.606 225.273 123.421 225.716C123.227 226.17 123.129 226.66 123.131 227.154C123.127 227.639 123.226 228.119 123.421 228.563C123.611 228.994 123.877 229.387 124.205 229.725C124.533 230.063 124.922 230.334 125.353 230.525C125.797 230.72 126.277 230.819 126.762 230.815C127.252 230.818 127.737 230.719 128.186 230.525C128.625 230.335 129.024 230.063 129.362 229.725C129.699 229.388 129.975 228.995 130.176 228.563C130.38 228.121 130.484 227.64 130.481 227.154C130.483 226.657 130.379 226.165 130.176 225.712V225.716ZM154.276 247.897C154.48 245.654 155.426 243.543 156.963 241.897C158.189 240.842 159.678 240.14 161.271 239.863C162.865 239.587 164.503 239.748 166.013 240.328C166.918 240.707 167.726 241.283 168.381 242.013C169.045 242.766 169.548 243.645 169.862 244.599C170.212 245.663 170.384 246.778 170.371 247.899H154.271L154.276 247.897ZM173.1 259.812C172.991 259.651 172.844 259.521 172.671 259.434C172.498 259.346 172.306 259.304 172.112 259.312C171.685 259.347 171.276 259.504 170.935 259.763C170.386 260.117 169.818 260.442 169.235 260.736C168.455 261.127 167.645 261.453 166.812 261.712C165.723 262.034 164.591 262.186 163.456 262.163C162.165 262.182 160.883 261.95 159.68 261.48C158.563 261.029 157.568 260.323 156.774 259.417C155.913 258.41 155.266 257.239 154.874 255.974C154.386 254.402 154.127 252.768 154.104 251.123H173.772C173.958 251.146 174.146 251.12 174.319 251.049C174.492 250.978 174.644 250.863 174.76 250.716C174.98 250.203 175.07 249.644 175.021 249.089C175.053 247.184 174.738 245.289 174.092 243.497C173.532 241.957 172.656 240.552 171.52 239.371C170.418 238.253 169.091 237.381 167.627 236.815C166.066 236.213 164.405 235.912 162.732 235.928C160.758 235.897 158.799 236.278 156.98 237.047C155.333 237.751 153.857 238.801 152.651 240.126C151.446 241.474 150.522 243.049 149.935 244.76C149.294 246.609 148.974 248.555 148.99 250.513C148.951 252.803 149.305 255.082 150.036 257.253C150.656 259.079 151.651 260.756 152.956 262.177C154.198 263.499 155.715 264.53 157.401 265.199C159.191 265.9 161.1 266.25 163.023 266.23C164.104 266.229 165.182 266.136 166.247 265.954C167.321 265.773 168.376 265.496 169.4 265.126C170.403 264.764 171.363 264.292 172.261 263.717C173.129 263.168 173.905 262.487 174.561 261.698L173.1 259.812ZM215.981 239.766C214.778 238.558 213.352 237.596 211.781 236.934C210.041 236.236 208.178 235.896 206.304 235.934C204.276 235.895 202.262 236.281 200.392 237.067C198.733 237.783 197.254 238.86 196.063 240.22C194.857 241.626 193.949 243.261 193.391 245.028C192.147 249.103 192.172 253.46 193.463 257.52C194.047 259.27 194.976 260.885 196.194 262.27C197.335 263.54 198.741 264.544 200.312 265.212C201.934 265.899 203.679 266.245 205.44 266.229C206.491 266.23 207.541 266.143 208.577 265.967C209.587 265.798 210.576 265.52 211.526 265.139C212.452 264.769 213.334 264.296 214.155 263.73C214.976 263.162 215.71 262.477 216.334 261.697L214.882 259.808C214.773 259.648 214.625 259.52 214.452 259.433C214.279 259.347 214.087 259.306 213.894 259.314C213.498 259.333 213.122 259.493 212.834 259.765C212.475 260.065 212.03 260.398 211.497 260.765C209.986 261.782 208.19 262.291 206.37 262.218C205.143 262.237 203.928 261.984 202.811 261.477C201.755 260.982 200.83 260.246 200.111 259.327C199.315 258.288 198.728 257.104 198.382 255.841C197.954 254.295 197.748 252.695 197.772 251.091C197.754 249.532 197.944 247.979 198.339 246.471C198.666 245.2 199.238 244.006 200.024 242.956C200.754 242 201.706 241.237 202.798 240.734C204.886 239.872 207.2 239.729 209.378 240.327C210.033 240.53 210.665 240.798 211.267 241.127C211.78 241.417 212.211 241.683 212.56 241.927C212.835 242.142 213.169 242.269 213.518 242.29C213.744 242.303 213.968 242.242 214.157 242.116C214.335 241.975 214.492 241.808 214.622 241.622L215.981 239.766ZM247.589 265.579C248.783 265.142 249.878 264.474 250.812 263.612L249.301 261.143C249.233 261.005 249.13 260.887 249.003 260.8C248.876 260.714 248.728 260.661 248.575 260.649C248.378 260.665 248.19 260.741 248.037 260.867C247.837 261.011 247.59 261.171 247.297 261.346C246.969 261.537 246.623 261.698 246.265 261.825C245.812 261.98 245.335 262.053 244.856 262.043C244.428 262.059 244.001 261.988 243.601 261.833C243.201 261.678 242.838 261.443 242.532 261.143C242.206 260.766 241.959 260.327 241.804 259.853C241.65 259.379 241.591 258.88 241.632 258.383V240.721H250.145V236.973H241.632V226.834H239.018C238.726 226.82 238.44 226.919 238.218 227.11C238.012 227.297 237.874 227.548 237.826 227.822L236.634 236.915L231.812 237.525V239.588C231.799 239.745 231.82 239.904 231.876 240.052C231.931 240.2 232.018 240.334 232.131 240.445C232.35 240.631 232.629 240.729 232.916 240.721H236.46V258.733C236.321 260.776 236.995 262.791 238.334 264.34C239.044 265.018 239.887 265.541 240.81 265.876C241.732 266.211 242.714 266.351 243.694 266.287C245.025 266.288 246.345 266.047 247.589 265.575V265.579ZM301.132 244.502C302.075 243.202 303.252 242.088 304.603 241.219C305.93 240.424 307.456 240.021 309.003 240.057C310.071 239.999 311.137 240.2 312.11 240.643C313.084 241.085 313.936 241.756 314.595 242.599C315.903 244.293 316.557 246.942 316.556 250.545C316.556 254.419 315.82 257.333 314.348 259.289C313.608 260.26 312.641 261.036 311.532 261.548C310.423 262.059 309.206 262.291 307.986 262.224C306.699 262.238 305.425 261.97 304.253 261.439C303.001 260.816 301.927 259.887 301.13 258.739V244.498L301.132 244.502ZM301.132 223.032H295.932V265.822H299.273C299.595 265.848 299.915 265.748 300.164 265.542C300.413 265.337 300.573 265.043 300.61 264.722L300.871 262.049C301.788 263.322 302.973 264.379 304.343 265.143C305.857 265.913 307.541 266.288 309.238 266.233C311.065 266.261 312.875 265.868 314.526 265.085C316.085 264.327 317.451 263.225 318.52 261.861C319.67 260.366 320.523 258.665 321.033 256.849C321.636 254.733 321.93 252.541 321.905 250.341C321.931 248.31 321.671 246.286 321.135 244.328C320.69 242.684 319.936 241.141 318.912 239.781C317.979 238.561 316.77 237.58 315.383 236.919C313.922 236.244 312.329 235.907 310.72 235.931C308.844 235.893 306.99 236.333 305.331 237.21C303.736 238.09 302.313 239.251 301.131 240.638V223.028L301.132 223.032ZM360.282 236.396V258.069C359.243 259.279 357.999 260.297 356.607 261.076C355.295 261.798 353.819 262.174 352.321 262.166C351.456 262.234 350.586 262.104 349.779 261.787C348.971 261.47 348.246 260.973 347.658 260.335C346.556 258.845 346.016 257.013 346.133 255.164V236.392H340.962V255.16C340.945 256.703 341.155 258.24 341.587 259.721C341.957 261.011 342.595 262.209 343.46 263.236C344.305 264.214 345.364 264.984 346.554 265.488C347.903 266.044 349.352 266.316 350.811 266.288C352.711 266.324 354.59 265.88 356.272 264.995C357.889 264.111 359.344 262.956 360.572 261.582L360.979 264.748C361.038 265.067 361.213 265.354 361.47 265.552C361.727 265.751 362.049 265.847 362.373 265.823H365.453V236.392H360.282V236.396ZM390.989 237.82C390.961 237.417 390.809 237.033 390.554 236.72C390.221 236.469 389.806 236.355 389.392 236.4H386.428V265.83H391.628V247.229C391.96 246.298 392.373 245.399 392.862 244.541C393.275 243.81 393.794 243.145 394.402 242.566C394.965 242.039 395.626 241.629 396.349 241.36C397.146 241.077 397.987 240.939 398.833 240.953C399.428 240.947 400.022 241.005 400.605 241.128C400.995 241.226 401.394 241.284 401.796 241.302C402.006 241.314 402.213 241.245 402.375 241.11C402.536 240.976 402.641 240.785 402.667 240.576L403.045 236.712C402.578 236.412 402.062 236.196 401.52 236.073C400.934 235.937 400.334 235.869 399.733 235.873C397.926 235.821 396.162 236.425 394.765 237.573C393.286 238.873 392.115 240.485 391.337 242.294L390.989 237.82ZM422.773 247.901C422.977 245.658 423.923 243.547 425.46 241.901C426.686 240.846 428.175 240.144 429.768 239.867C431.362 239.591 433 239.752 434.51 240.332C435.415 240.711 436.223 241.287 436.878 242.017C437.542 242.77 438.046 243.649 438.359 244.603C438.709 245.667 438.881 246.782 438.868 247.903H422.768L422.773 247.901ZM441.599 259.812C441.49 259.652 441.343 259.522 441.17 259.434C440.998 259.347 440.805 259.305 440.612 259.312C440.185 259.347 439.776 259.504 439.435 259.763C438.886 260.117 438.318 260.442 437.735 260.736C436.954 261.126 436.143 261.451 435.309 261.709C434.22 262.031 433.088 262.183 431.953 262.16C430.662 262.179 429.38 261.947 428.177 261.477C427.06 261.026 426.065 260.32 425.271 259.414C424.41 258.407 423.764 257.236 423.371 255.971C422.884 254.399 422.625 252.765 422.602 251.12H442.27C442.456 251.143 442.644 251.117 442.817 251.046C442.991 250.975 443.142 250.86 443.258 250.713C443.478 250.2 443.568 249.641 443.519 249.086C443.551 247.181 443.236 245.286 442.59 243.494C442.03 241.954 441.154 240.549 440.018 239.368C438.916 238.25 437.589 237.378 436.125 236.812C434.564 236.21 432.903 235.909 431.23 235.925C429.256 235.894 427.297 236.275 425.478 237.044C423.831 237.748 422.355 238.798 421.149 240.123C419.944 241.471 419.02 243.046 418.433 244.757C417.792 246.606 417.472 248.552 417.488 250.51C417.449 252.8 417.803 255.079 418.534 257.25C419.154 259.076 420.149 260.753 421.454 262.174C422.696 263.496 424.213 264.527 425.899 265.196C427.689 265.897 429.598 266.247 431.521 266.227C432.602 266.225 433.68 266.133 434.745 265.951C435.819 265.77 436.874 265.493 437.898 265.123C438.901 264.761 439.861 264.288 440.759 263.714C441.627 263.165 442.403 262.484 443.059 261.695L441.599 259.812ZM478.582 258.679C478.028 259.274 477.431 259.828 476.795 260.335C476.197 260.812 475.555 261.23 474.878 261.585C474.201 261.937 473.485 262.206 472.743 262.385C471.924 262.577 471.084 262.669 470.243 262.661C469.601 262.665 468.962 262.582 468.343 262.415C467.78 262.265 467.255 261.997 466.803 261.63C466.356 261.257 466.003 260.784 465.772 260.25C465.506 259.617 465.378 258.936 465.394 258.25C465.387 257.456 465.637 256.682 466.106 256.042C466.711 255.283 467.502 254.692 468.401 254.327C469.714 253.768 471.091 253.373 472.501 253.151C474.514 252.818 476.548 252.629 478.587 252.584V258.684L478.582 258.679ZM462.812 242.203C462.98 242.468 463.197 242.7 463.451 242.885C463.713 243.073 464.029 243.169 464.351 243.161C464.84 243.146 465.313 242.979 465.702 242.682C466.156 242.363 466.698 242.005 467.328 241.607C468.035 241.173 468.784 240.812 469.565 240.532C470.599 240.186 471.686 240.024 472.776 240.053C473.583 239.999 474.393 240.129 475.142 240.433C475.892 240.738 476.563 241.209 477.104 241.811C478.194 243.311 478.718 245.147 478.586 246.996V249.296C475.735 249.318 472.893 249.624 470.103 250.212C468.144 250.616 466.254 251.306 464.496 252.26C463.233 252.933 462.163 253.918 461.387 255.121C460.767 256.131 460.435 257.292 460.429 258.477C460.4 259.667 460.623 260.85 461.082 261.949C461.484 262.88 462.089 263.709 462.854 264.375C463.624 265.027 464.519 265.516 465.484 265.813C466.528 266.138 467.615 266.299 468.708 266.292C469.738 266.301 470.765 266.199 471.773 265.987C472.669 265.792 473.541 265.499 474.373 265.115C475.194 264.733 475.973 264.265 476.697 263.721C477.484 263.127 478.241 262.493 478.963 261.821L479.544 264.61C479.634 265 479.861 265.345 480.183 265.583C480.541 265.768 480.943 265.853 481.345 265.83H483.645V246.996C483.661 245.46 483.436 243.93 482.977 242.464C482.575 241.165 481.901 239.967 481.001 238.949C480.107 237.964 479.006 237.19 477.777 236.683C476.384 236.119 474.892 235.842 473.39 235.869C471.252 235.841 469.129 236.236 467.144 237.031C465.184 237.859 463.4 239.053 461.885 240.547L462.812 242.203ZM523.327 236.392V258.065C522.288 259.275 521.044 260.293 519.652 261.072C518.34 261.794 516.865 262.17 515.367 262.162C514.502 262.23 513.632 262.101 512.825 261.783C512.017 261.466 511.292 260.969 510.704 260.331C509.602 258.841 509.062 257.009 509.179 255.16V236.392H504.002V255.16C503.985 256.703 504.195 258.24 504.627 259.721C504.997 261.011 505.636 262.209 506.501 263.236C507.346 264.214 508.404 264.985 509.595 265.488C510.944 266.044 512.392 266.316 513.851 266.288C515.752 266.325 517.631 265.88 519.313 264.995C520.93 264.11 522.385 262.956 523.613 261.582L524.019 264.748C524.078 265.067 524.253 265.354 524.511 265.552C524.768 265.751 525.09 265.847 525.414 265.823H528.493V236.392H523.322H523.327ZM599.356 257.692C598.054 259.033 596.511 260.119 594.809 260.892C592.967 261.709 590.97 262.115 588.955 262.083C587.946 262.083 586.944 261.911 585.992 261.575C585.042 261.245 584.164 260.736 583.407 260.075C582.588 259.361 581.937 258.476 581.5 257.481C581.063 256.487 580.851 255.408 580.879 254.322C580.874 252.518 581.416 250.756 582.433 249.267C583.622 247.583 585.213 246.223 587.062 245.312L599.356 257.692ZM605.196 256.965C606.463 255.109 607.451 253.079 608.13 250.937C608.804 248.818 609.157 246.609 609.176 244.386H606.009C605.859 244.377 605.708 244.401 605.567 244.456C605.427 244.511 605.3 244.596 605.196 244.705C604.989 244.95 604.866 245.256 604.847 245.577C604.705 247.022 604.413 248.448 603.975 249.833C603.528 251.261 602.934 252.638 602.203 253.944L590.234 241.771C589.565 241.11 588.934 240.412 588.345 239.679C587.855 239.071 587.423 238.42 587.053 237.733C586.73 237.136 586.481 236.501 586.312 235.844C586.154 235.207 586.076 234.554 586.079 233.898C586.072 233.069 586.219 232.246 586.515 231.472C586.796 230.742 587.226 230.078 587.779 229.525C588.349 228.961 589.03 228.521 589.779 228.233C590.618 227.913 591.511 227.755 592.409 227.768C593.21 227.751 594.006 227.899 594.747 228.204C595.378 228.468 595.958 228.84 596.461 229.304C596.924 229.734 597.316 230.233 597.624 230.785C597.904 231.28 598.123 231.807 598.277 232.354C598.309 232.508 598.372 232.653 598.461 232.782C598.551 232.912 598.666 233.021 598.798 233.105C598.931 233.189 599.08 233.246 599.235 233.271C599.39 233.297 599.548 233.291 599.701 233.254L602.926 232.615C602.847 231.446 602.535 230.306 602.01 229.259C601.478 228.184 600.743 227.222 599.846 226.426C598.887 225.583 597.785 224.919 596.592 224.465C595.257 223.957 593.837 223.706 592.409 223.725C590.819 223.702 589.238 223.973 587.746 224.525C586.437 225.011 585.237 225.752 584.216 226.704C583.254 227.614 582.496 228.719 581.993 229.944C581.476 231.206 581.214 232.559 581.224 233.924C581.221 235.422 581.507 236.906 582.066 238.296C582.728 239.869 583.608 241.341 584.681 242.669C583.397 243.23 582.179 243.932 581.049 244.76C579.972 245.548 579.005 246.476 578.173 247.52C577.369 248.533 576.728 249.665 576.273 250.876C575.814 252.107 575.583 253.411 575.59 254.725C575.563 256.404 575.931 258.066 576.665 259.577C577.354 260.975 578.324 262.216 579.513 263.223C580.694 264.22 582.048 264.994 583.507 265.504C584.967 266.023 586.505 266.288 588.054 266.288C590.743 266.32 593.41 265.79 595.883 264.734C598.215 263.724 600.346 262.301 602.173 260.534L606.386 264.775C606.699 265.134 607.085 265.421 607.519 265.618C607.958 265.767 608.421 265.835 608.884 265.818H613.91L605.196 256.965ZM662.544 247.901C662.748 245.658 663.694 243.547 665.231 241.901C666.457 240.846 667.946 240.144 669.539 239.867C671.133 239.591 672.771 239.752 674.281 240.332C675.186 240.711 675.994 241.287 676.649 242.017C677.313 242.77 677.817 243.649 678.13 244.603C678.48 245.667 678.652 246.782 678.639 247.903H662.539L662.544 247.901ZM681.365 259.812C681.256 259.653 681.108 259.524 680.935 259.437C680.762 259.351 680.57 259.31 680.377 259.318C679.95 259.353 679.542 259.51 679.2 259.769C678.651 260.123 678.083 260.448 677.5 260.742C676.719 261.132 675.908 261.458 675.074 261.715C673.985 262.037 672.853 262.189 671.718 262.166C670.427 262.185 669.145 261.953 667.942 261.483C666.825 261.032 665.83 260.326 665.036 259.42C664.175 258.413 663.528 257.242 663.136 255.977C662.648 254.405 662.389 252.771 662.366 251.126H682.034C682.22 251.149 682.408 251.123 682.581 251.052C682.754 250.981 682.906 250.866 683.022 250.719C683.242 250.206 683.332 249.647 683.283 249.092C683.315 247.187 683 245.292 682.354 243.5C681.794 241.96 680.918 240.555 679.782 239.374C678.68 238.256 677.353 237.384 675.889 236.818C674.328 236.216 672.667 235.915 670.994 235.931C669.02 235.9 667.061 236.281 665.242 237.05C663.595 237.754 662.119 238.804 660.913 240.129C659.708 241.477 658.784 243.052 658.197 244.763C657.556 246.612 657.236 248.558 657.252 250.516C657.213 252.806 657.567 255.085 658.298 257.256C658.918 259.082 659.913 260.759 661.218 262.18C662.46 263.502 663.977 264.533 665.663 265.202C667.453 265.903 669.362 266.253 671.285 266.233C672.366 266.232 673.444 266.139 674.509 265.957C675.583 265.776 676.638 265.499 677.662 265.129C678.665 264.767 679.625 264.295 680.523 263.72C681.389 263.171 682.163 262.49 682.818 261.701L681.365 259.812ZM715.88 250.458L725.786 236.396H721.022C720.754 236.388 720.491 236.476 720.281 236.643C720.059 236.83 719.867 237.05 719.714 237.297L713.381 246.597C713.06 247.101 712.816 247.649 712.655 248.224L705.421 237.184C705.288 236.956 705.11 236.759 704.898 236.603C704.614 236.446 704.291 236.377 703.968 236.403H699L708.912 250.712L698.594 265.822H703.212C703.379 265.831 703.547 265.806 703.704 265.749C703.861 265.691 704.005 265.603 704.127 265.488C704.355 265.259 704.565 265.011 704.752 264.747L711.608 254.724C711.765 254.507 711.888 254.267 711.971 254.012C712.058 253.751 712.14 253.484 712.218 253.212L719.626 264.746C719.786 265.023 719.989 265.273 720.226 265.487C720.504 265.722 720.862 265.842 721.226 265.821H726.194L715.88 250.458ZM748.94 244.502C749.889 243.196 751.076 242.082 752.44 241.219C753.779 240.425 755.314 240.023 756.87 240.057C757.958 240.038 759.038 240.246 760.041 240.667C760.985 241.086 761.797 241.754 762.391 242.599C763.094 243.622 763.593 244.772 763.861 245.984C764.224 247.604 764.392 249.262 764.361 250.922C764.361 254.544 763.628 257.333 762.161 259.289C761.424 260.258 760.462 261.032 759.357 261.543C758.253 262.055 757.04 262.288 755.825 262.224C754.524 262.243 753.234 261.975 752.048 261.439C750.802 260.813 749.734 259.884 748.939 258.739V244.498L748.94 244.502ZM748.214 237.471C748.164 237.152 747.995 236.864 747.742 236.665C747.489 236.466 747.169 236.369 746.848 236.396H743.74V275.791H748.94V262.772C749.9 263.835 751.06 264.698 752.354 265.312C753.812 265.957 755.395 266.269 756.988 266.227C758.779 266.263 760.554 265.884 762.175 265.121C763.796 264.358 765.219 263.23 766.332 261.827C767.466 260.382 768.317 258.736 768.842 256.976C769.436 255.012 769.729 252.97 769.712 250.918C769.744 248.733 769.481 246.554 768.932 244.44C768.491 242.739 767.73 241.137 766.692 239.719C765.77 238.488 764.562 237.501 763.172 236.843C761.725 236.177 760.148 235.844 758.556 235.869C756.606 235.833 754.682 236.314 752.978 237.264C751.327 238.214 749.868 239.465 748.678 240.953L748.214 237.471ZM792.692 247.901C792.895 245.657 793.842 243.545 795.382 241.901C796.164 241.16 797.088 240.586 798.099 240.213C799.11 239.841 800.186 239.679 801.262 239.736C802.348 239.719 803.427 239.923 804.432 240.336C805.335 240.713 806.142 241.289 806.792 242.021C807.459 242.773 807.966 243.653 808.282 244.607C808.629 245.672 808.798 246.787 808.782 247.907H792.692V247.901ZM811.522 259.812C811.411 259.653 811.263 259.525 811.09 259.439C810.917 259.353 810.725 259.311 810.532 259.318C810.104 259.354 809.695 259.51 809.352 259.769C808.804 260.124 808.236 260.449 807.652 260.742C806.873 261.132 806.064 261.457 805.232 261.715C804.142 262.037 803.009 262.189 801.872 262.166C800.58 262.184 799.296 261.952 798.092 261.483C796.977 261.032 795.983 260.326 795.192 259.42C794.327 258.416 793.68 257.244 793.292 255.977C792.798 254.406 792.539 252.772 792.522 251.126H812.182C812.368 251.15 812.557 251.125 812.731 251.054C812.905 250.982 813.057 250.867 813.172 250.719C813.395 250.207 813.484 249.647 813.432 249.092C813.464 247.187 813.149 245.292 812.502 243.5C811.945 241.959 811.07 240.553 809.932 239.374C808.832 238.255 807.506 237.384 806.042 236.818C804.479 236.215 802.817 235.914 801.142 235.931C799.168 235.901 797.21 236.282 795.392 237.05C793.745 237.755 792.269 238.805 791.062 240.129C789.86 241.478 788.938 243.053 788.352 244.763C787.709 246.612 787.388 248.558 787.402 250.516C787.362 252.806 787.718 255.086 788.452 257.256C789.073 259.082 790.067 260.759 791.372 262.18C792.613 263.5 794.128 264.532 795.812 265.202C797.602 265.902 799.51 266.252 801.432 266.233C802.515 266.232 803.595 266.139 804.662 265.957C805.734 265.775 806.789 265.498 807.812 265.129C808.815 264.768 809.775 264.295 810.672 263.72C811.539 263.171 812.315 262.489 812.972 261.701L811.522 259.812ZM837.112 237.812C837.084 237.408 836.93 237.023 836.672 236.712C836.34 236.461 835.925 236.346 835.512 236.392H832.552V265.822H837.752V247.229C838.086 246.3 838.498 245.401 838.982 244.541C839.397 243.812 839.916 243.146 840.522 242.566C841.087 242.04 841.749 241.63 842.472 241.36C843.268 241.078 844.108 240.94 844.952 240.953C845.55 240.947 846.147 241.006 846.732 241.128C847.122 241.226 847.52 241.284 847.922 241.302C848.132 241.312 848.338 241.243 848.499 241.109C848.66 240.974 848.765 240.784 848.792 240.576L849.172 236.712C848.702 236.413 848.185 236.196 847.642 236.073C847.059 235.936 846.461 235.869 845.862 235.873C844.054 235.82 842.289 236.424 840.892 237.573C839.411 238.872 838.24 240.484 837.462 242.294L837.112 237.812ZM879.412 265.571C880.606 265.135 881.704 264.468 882.642 263.61L881.122 261.141C881.055 261.003 880.954 260.885 880.828 260.798C880.701 260.712 880.555 260.659 880.402 260.647C880.204 260.661 880.015 260.737 879.862 260.865C879.662 261.01 879.412 261.165 879.122 261.344C878.795 261.536 878.45 261.697 878.092 261.823C877.638 261.977 877.161 262.051 876.682 262.041C876.254 262.057 875.828 261.986 875.429 261.831C875.03 261.676 874.667 261.441 874.362 261.141C874.033 260.765 873.783 260.328 873.626 259.853C873.47 259.379 873.411 258.878 873.452 258.381V240.721H881.972V236.973H873.452V226.834H870.842C870.55 226.82 870.263 226.919 870.042 227.11C869.839 227.299 869.702 227.549 869.652 227.822L868.462 236.915L863.642 237.525V239.588C863.628 239.745 863.648 239.903 863.702 240.051C863.756 240.199 863.841 240.333 863.952 240.445C864.173 240.63 864.454 240.728 864.742 240.721H868.282V258.733C868.144 260.777 868.82 262.792 870.162 264.34C870.872 265.018 871.715 265.541 872.637 265.876C873.56 266.212 874.542 266.351 875.522 266.287C876.851 266.287 878.169 266.046 879.412 265.575V265.571ZM900.392 236.388V265.818H905.562V236.392H900.392V236.388ZM906.362 225.712C906.162 225.269 905.884 224.865 905.542 224.52C905.201 224.178 904.797 223.906 904.352 223.72C903.897 223.525 903.407 223.426 902.912 223.429C902.427 223.426 901.946 223.525 901.502 223.72C901.075 223.912 900.688 224.183 900.362 224.52C900.029 224.866 899.762 225.27 899.572 225.712C899.38 226.167 899.282 226.656 899.282 227.15C899.28 227.635 899.379 228.114 899.572 228.559C899.766 228.989 900.034 229.382 900.362 229.721C900.688 230.057 901.075 230.329 901.502 230.521C901.946 230.715 902.427 230.814 902.912 230.811C903.407 230.814 903.897 230.715 904.352 230.521C904.797 230.334 905.201 230.063 905.542 229.721C905.88 229.383 906.157 228.99 906.362 228.559C906.563 228.117 906.666 227.636 906.662 227.15C906.664 226.655 906.562 226.165 906.362 225.712V225.712ZM945.132 239.352C943.971 238.266 942.614 237.413 941.132 236.839C939.469 236.206 937.701 235.895 935.922 235.923C934.409 235.899 932.904 236.135 931.472 236.623C930.269 237.033 929.156 237.669 928.192 238.497C927.325 239.251 926.629 240.182 926.152 241.227C925.696 242.246 925.461 243.35 925.462 244.467C925.427 245.573 925.649 246.672 926.112 247.677C926.527 248.531 927.116 249.288 927.842 249.9C928.582 250.516 929.407 251.021 930.292 251.4C931.212 251.8 932.152 252.153 933.112 252.46C934.072 252.767 935.012 253.062 935.932 253.346C936.781 253.598 937.604 253.929 938.392 254.334C939.051 254.669 939.636 255.133 940.112 255.699C940.566 256.272 940.8 256.988 940.772 257.719C940.778 258.357 940.652 258.99 940.402 259.578C940.154 260.169 939.775 260.696 939.292 261.118C938.736 261.589 938.094 261.949 937.402 262.178C936.546 262.454 935.651 262.587 934.752 262.57C933.75 262.596 932.75 262.459 931.792 262.164C931.089 261.934 930.413 261.633 929.772 261.264C929.222 260.935 928.752 260.635 928.362 260.364C928.046 260.118 927.662 259.976 927.262 259.958C926.975 259.947 926.691 260.016 926.442 260.158C926.219 260.309 926.031 260.508 925.892 260.739L924.672 262.715C925.924 263.814 927.359 264.684 928.912 265.286C930.691 265.973 932.585 266.313 934.492 266.286C936.112 266.314 937.724 266.069 939.262 265.56C940.54 265.128 941.722 264.453 942.742 263.57C943.678 262.749 944.413 261.726 944.892 260.577C945.388 259.385 945.637 258.105 945.622 256.815C945.649 255.766 945.427 254.725 944.972 253.779C944.547 252.957 943.958 252.23 943.242 251.644C942.5 251.049 941.679 250.56 940.802 250.191C939.892 249.804 938.952 249.45 937.992 249.131C937.032 248.812 936.102 248.511 935.192 248.231C934.352 247.978 933.536 247.652 932.752 247.258C932.097 246.937 931.509 246.493 931.022 245.95C930.577 245.424 930.345 244.75 930.372 244.062C930.367 243.482 930.501 242.91 930.762 242.392C931.035 241.864 931.421 241.403 931.892 241.041C932.43 240.632 933.036 240.322 933.682 240.125C934.443 239.893 935.236 239.781 936.032 239.791C936.917 239.775 937.799 239.887 938.652 240.125C939.304 240.316 939.939 240.559 940.552 240.852C941.082 241.113 941.532 241.351 941.902 241.564C942.199 241.754 942.54 241.864 942.892 241.883C943.113 241.892 943.332 241.836 943.522 241.722C943.712 241.609 943.865 241.443 943.962 241.244L945.132 239.352ZM968.372 247.893C968.576 245.651 969.519 243.541 971.052 241.893C972.278 240.838 973.767 240.135 975.36 239.859C976.954 239.583 978.593 239.744 980.102 240.324C981.007 240.703 981.816 241.279 982.472 242.009C983.136 242.762 983.639 243.641 983.952 244.595C984.303 245.659 984.475 246.774 984.462 247.895H968.372V247.893ZM987.192 259.804C987.084 259.645 986.938 259.516 986.766 259.43C986.595 259.343 986.404 259.302 986.212 259.31C985.784 259.344 985.374 259.501 985.032 259.761C984.482 260.114 983.915 260.439 983.332 260.734C982.55 261.124 981.737 261.449 980.902 261.707C979.815 262.028 978.685 262.18 977.552 262.158C976.26 262.177 974.976 261.946 973.772 261.475C972.657 261.024 971.663 260.318 970.872 259.412C970.007 258.406 969.357 257.235 968.962 255.969C968.478 254.396 968.219 252.763 968.192 251.118H987.862C988.048 251.141 988.237 251.116 988.41 251.044C988.584 250.973 988.736 250.858 988.852 250.711C989.07 250.198 989.159 249.639 989.112 249.084C989.144 247.179 988.829 245.284 988.182 243.492C987.622 241.953 986.746 240.547 985.612 239.366C984.512 238.247 983.186 237.376 981.722 236.81C980.159 236.208 978.497 235.907 976.822 235.923C974.848 235.892 972.89 236.273 971.072 237.042C969.424 237.745 967.947 238.795 966.742 240.121C965.537 241.469 964.612 243.045 964.022 244.755C963.382 246.605 963.065 248.551 963.082 250.508C963.043 252.798 963.398 255.078 964.132 257.248C964.749 259.076 965.744 260.754 967.052 262.172C968.291 263.494 969.807 264.527 971.492 265.194C973.282 265.895 975.19 266.245 977.112 266.225C978.195 266.224 979.275 266.131 980.342 265.949C981.415 265.767 982.469 265.49 983.492 265.121C984.495 264.76 985.455 264.287 986.352 263.712C987.219 263.163 987.995 262.481 988.652 261.693L987.192 259.804Z"
       fill="white"
       id="path4"
       style="stroke:none;stroke-opacity:1;fill:#afafaf;fill-opacity:1" />
  </g>
  <defs
     id="defs11">
    <clipPath
       id="clip0_92_5">
      <rect
         width="991.752"
         height="276.406"
         fill="white"
         id="rect8" />
    </clipPath>
  </defs>
</svg>
