<svg width="71" height="24" viewBox="0 0 71 24" fill="none" xmlns="http://www.w3.org/2000/svg">
<g opacity="0.7">
<path d="M13.5135 0.139765C13.098 0.556366 12.6814 0.97163 12.2675 1.3893C10.2981 3.37691 8.32948 5.36531 6.35981 7.35265C6.06861 7.64659 5.96122 7.99078 6.09823 8.38707C6.23101 8.77053 6.51057 8.98485 6.9126 9.02814C6.99988 9.03749 7.08849 9.03776 7.17656 9.03776C12.5211 9.03829 17.866 9.03776 23.2106 9.03856C23.4502 9.03856 23.4052 9.01157 23.4568 9.23417C23.761 10.5438 23.8425 11.8679 23.7126 13.2072C23.2468 18.0082 19.9261 22.0537 15.4073 23.4662C14.0425 23.8927 12.6463 24.057 11.2225 23.9827C10.8191 23.9616 10.4179 23.9058 9.9778 23.862C10.041 23.7952 10.0783 23.7545 10.1169 23.7155C12.5471 21.2619 14.977 18.8082 17.4082 16.3557C17.5751 16.1873 17.7319 16.0158 17.7898 15.7758C17.9371 15.1663 17.5039 14.6016 16.8675 14.5752C16.8146 14.573 16.7617 14.5744 16.7088 14.5744C11.2981 14.5744 5.88717 14.5744 0.476459 14.5744H0.252699C-0.486027 10.5398 0.372249 6.93204 3.12667 3.89986C5.90965 0.836416 9.4266 -0.34471 13.4905 0.0855188C13.4982 0.10369 13.5059 0.121594 13.5135 0.139765Z" fill="#BBBBBB"/>
<path d="M37.3424 15.7122C38.9111 15.7555 40.7358 14.5853 40.9939 12.4831C41.2547 10.3592 39.8437 8.57359 37.7174 8.28659C37.7447 8.24464 37.7661 8.20856 37.7902 8.17436C38.3686 7.35158 38.9478 6.5296 39.5242 5.70549C39.5747 5.63307 39.6152 5.60929 39.7043 5.64616C41.9879 6.58625 43.4453 8.25399 43.9301 10.7007C44.6453 14.3111 42.3997 17.7749 38.8418 18.6129C38.3612 18.7262 37.8618 18.7588 37.3479 18.8323V21.8361H34.2113V18.7981C32.0864 18.7401 30.3286 17.924 28.9863 16.2701C27.8852 14.9135 27.3943 13.3366 27.4977 11.5887C27.6035 9.80415 28.3121 8.28472 29.5996 7.05737C30.8843 5.83295 32.4292 5.23678 34.2031 5.20124V2.2722H37.3424V15.7122ZM34.1986 15.7314V8.26254C32.8624 8.3208 31.7947 8.86834 31.0924 10.0139C30.3074 11.2939 30.2945 12.6298 31.0567 13.9229C31.7529 15.1035 32.8328 15.6729 34.1986 15.7314Z" fill="#BBBBBB"/>
<path d="M54.8906 14.3496C55.5288 15.2571 56.1604 16.155 56.791 17.0512C54.4843 19.2029 50.6082 19.5169 47.889 17.0969C45.0809 14.5979 44.8103 10.3431 47.2754 7.51646C49.7195 4.71382 53.657 4.58075 56.2144 6.47562C55.5889 7.36467 54.9633 8.25399 54.3315 9.15213C53.4028 8.52015 52.3991 8.33897 51.3263 8.6575C50.5194 8.89693 49.8833 9.38568 49.4246 10.0994C48.506 11.5288 48.7589 13.433 49.9846 14.5738C51.2295 15.7325 53.4528 15.9139 54.8906 14.3496Z" fill="#BBBBBB"/>
<path d="M0.870548 16.5096H14.545C14.5112 16.5486 14.4884 16.5785 14.462 16.605C12.2847 18.8037 10.1066 21.0019 7.93063 23.2022C7.86583 23.2679 7.81451 23.2829 7.72564 23.2479C4.54513 21.9959 2.27606 19.7892 0.915776 16.629C0.900436 16.5938 0.888534 16.5569 0.870548 16.5096Z" fill="#BBBBBB"/>
<path d="M22.7374 7.10493H9.31418C9.35015 7.06325 9.37264 7.03332 9.39882 7.00686C11.4735 4.91183 13.5487 2.81707 15.6223 0.720708C15.6863 0.65604 15.7387 0.6368 15.8281 0.669936C18.9512 1.82861 21.2314 3.92257 22.6715 6.94968C22.6924 6.99323 22.7096 7.03866 22.7374 7.1044V7.10493Z" fill="#BBBBBB"/>
<path d="M62.5712 11.994C63.1591 11.1659 63.741 10.3461 64.3232 9.52624C65.2592 8.20776 66.1947 6.88875 67.1345 5.57294C67.1688 5.52484 67.2439 5.47835 67.3003 5.47808C68.4194 5.47247 69.5384 5.47407 70.6575 5.47407C70.6829 5.47407 70.708 5.47674 70.7583 5.47942C70.7228 5.53259 70.6987 5.57161 70.672 5.60849C69.1753 7.66958 67.6788 9.73094 66.1788 11.7899C66.1146 11.8781 66.1159 11.9304 66.181 12.0176C67.7608 14.1385 69.3374 16.2619 70.9143 18.385C70.9405 18.42 70.9651 18.4563 71 18.5052C70.9595 18.5111 70.932 18.5186 70.9048 18.5186C69.768 18.5191 68.6312 18.5199 67.4947 18.5159C67.4434 18.5159 67.3736 18.4844 67.3434 18.444C65.7617 16.3132 64.1835 14.1799 62.605 12.047C62.5947 12.0331 62.5863 12.0173 62.5714 11.9935L62.5712 11.994Z" fill="#BBBBBB"/>
<path d="M58.7271 5.48182H62.134V18.5124H58.7271V5.48182Z" fill="#BBBBBB"/>
</g>
</svg>
