<svg width="90" height="23" viewBox="0 0 90 23" fill="none" xmlns="http://www.w3.org/2000/svg">
<g opacity="0.7">
<path d="M10.3556 0.150191C13.1864 0.724735 15.2125 2.30964 16.1827 5.18642C16.235 5.34071 16.2632 5.50381 16.3109 5.69397C15.6194 5.74878 14.9711 5.80157 14.3228 5.85029C13.4108 5.91864 12.4975 5.97481 11.5862 6.05331C11.3317 6.07497 11.1891 6.02151 11.0504 5.7657C10.0632 3.9453 7.40834 3.82281 6.22355 5.53088C5.77475 6.17783 5.55755 6.91953 5.45615 7.69303C5.28736 8.97137 5.29063 10.2517 5.59092 11.5125C6.09009 13.607 7.49796 14.3507 9.49529 14.1484C10.5368 14.0428 11.3264 13.5407 11.7517 12.5154C11.7857 12.4329 11.8171 12.3489 11.8439 12.2637C11.8531 12.2339 11.8452 12.198 11.8452 12.1202H9.71314V8.33186H16.8938C16.901 8.4618 16.9135 8.58293 16.9135 8.70474C16.9148 11.6519 16.9089 14.5991 16.9213 17.5462C16.9226 17.8839 16.8395 17.9922 16.5033 17.9841C15.5775 17.9604 14.6512 17.9644 13.7255 17.9827C13.4481 17.9881 13.3401 17.8954 13.3126 17.618C13.2721 17.2099 13.2014 16.8045 13.138 16.3613C13.068 16.41 13.0287 16.4269 13.0039 16.4567C11.997 17.6599 10.6755 18.248 9.19108 18.4598C7.21207 18.7427 5.34886 18.3745 3.67341 17.2133C1.8645 15.9593 0.800085 14.168 0.329048 12.0045C-0.252551 9.33681 -0.113203 6.71922 1.1514 4.26742C2.41339 1.81969 4.45978 0.499384 7.08842 0.0791344C8.08872 -0.0805741 9.77202 0.0317632 10.3556 0.150191Z" fill="#BBBBBB"/>
<path d="M50.1248 5.24868C50.5847 5.24868 51.0198 5.24868 51.4542 5.24868C52.3806 5.24868 53.3063 5.25748 54.2326 5.24327C54.5002 5.2392 54.597 5.32989 54.6023 5.60599C54.6082 5.90375 54.6644 6.20016 54.7076 6.57778C54.8653 6.42484 54.9712 6.3213 55.0779 6.21843C57.1478 4.23697 60.3129 4.32494 62.1389 6.42416C62.9488 7.35534 63.3779 8.47736 63.5775 9.6948C63.8895 11.6032 63.8143 13.4858 63.0724 15.2893C61.6986 18.6283 58.3621 19.0039 56.3346 17.9983C55.8342 17.7499 55.4011 17.3588 54.8986 17.0069V23H50.1248V5.24868ZM54.8502 11.5484C54.845 12.2325 54.9497 12.8917 55.301 13.4845C55.7295 14.2079 56.3706 14.5267 57.1773 14.438C57.9623 14.3514 58.4196 13.8317 58.6342 13.0852C58.9293 12.0606 58.9293 11.0212 58.6388 9.99797C58.4255 9.24816 57.9892 8.70407 57.174 8.61541C56.3425 8.52473 55.6614 8.89693 55.2558 9.66435C54.9457 10.2511 54.8417 10.8865 54.8502 11.5484Z" fill="#BBBBBB"/>
<path d="M42.8466 17.9516V17.5327C42.8466 15.3279 42.8499 13.1238 42.8427 10.919C42.8421 10.6409 42.8198 10.3539 42.7524 10.086C42.6039 9.49855 42.2493 9.09454 41.6553 8.96596C40.9599 8.81573 40.356 8.99777 39.8857 9.55607C39.5042 10.0088 39.361 10.5583 39.3603 11.1484C39.3577 13.274 39.3584 15.3996 39.3577 17.5259C39.3577 17.6579 39.3577 17.7905 39.3577 17.9489H34.5747V5.2744C34.6807 5.26628 34.7952 5.25071 34.9097 5.25071C36.1409 5.24868 37.3722 5.25815 38.6027 5.24327C38.8821 5.23988 38.9809 5.31974 38.9887 5.61479C38.9992 5.99444 39.0685 6.37205 39.1176 6.79772C39.1928 6.73275 39.2524 6.69688 39.2923 6.64478C40.3933 5.19251 41.8843 4.75061 43.5885 4.90287C44.0399 4.94348 44.4992 5.0301 44.9277 5.17898C46.575 5.75149 47.3921 7.01495 47.5943 8.74467C47.6486 9.21162 47.6545 9.68668 47.6558 10.1584C47.6617 12.6102 47.6584 15.0619 47.6584 17.5137C47.6584 17.6464 47.6584 17.7797 47.6584 17.9516H42.8466Z" fill="#BBBBBB"/>
<path d="M32.4086 14.2519C32.3353 14.4522 32.2843 14.6221 32.213 14.7824C31.5947 16.1819 30.6167 17.2288 29.2363 17.8067C26.9845 18.7494 24.7019 18.7643 22.4795 17.7357C20.3769 16.7626 19.3262 14.9665 19.0475 12.6487C18.8918 11.3548 18.9991 10.0846 19.476 8.87323C20.3657 6.6143 22.0575 5.37656 24.3323 4.9421C25.8036 4.66126 27.2651 4.73367 28.6671 5.31565C30.7927 6.19811 31.9683 7.90347 32.4949 10.1455C32.699 11.013 32.737 11.8935 32.6827 12.8118H23.6708C23.7225 13.0514 23.7513 13.251 23.8082 13.4418C24.0555 14.2668 24.5468 14.8447 25.4019 14.9909C26.3453 15.1526 27.2062 15.0227 27.8192 14.1436C27.8768 14.061 28.009 13.9805 28.1019 13.9859C29.5248 14.0658 30.947 14.1598 32.4086 14.2532V14.2519ZM27.8264 10.1543C27.7401 8.85834 26.9131 8.15183 25.6256 8.22627C24.5881 8.2865 23.7395 9.16287 23.7742 10.1543H27.8264Z" fill="#BBBBBB"/>
<path d="M90 11.6878C89.9542 14.1605 89.0769 16.2212 86.8859 17.5185C85.5225 18.3258 84.0237 18.5518 82.4732 18.4537C81.2054 18.3739 80.0029 18.0484 78.9267 17.3263C77.2944 16.2307 76.442 14.639 76.1921 12.6751C76.0442 11.5105 76.1254 10.36 76.4799 9.24477C77.04 7.48392 78.1325 6.17783 79.7975 5.47538C82.1886 4.46638 84.5877 4.49548 86.8879 5.76367C88.6386 6.72869 89.5735 8.33051 89.8979 10.3296C89.9248 10.4954 89.9496 10.6632 89.9607 10.8304C89.9791 11.0997 89.9863 11.3697 90 11.6878ZM84.8121 9.55336C84.6374 9.01604 83.938 8.21682 83.0365 8.22426C82.1703 8.23103 81.5547 8.67158 81.2976 9.57163C80.9077 10.9366 80.907 12.3232 81.2943 13.6895C81.5495 14.5909 82.1605 15.0356 83.0254 15.0532C83.9086 15.0707 84.5471 14.6458 84.8088 13.7295C84.9972 13.0703 85.1339 10.5427 84.8121 9.55336Z" fill="#BBBBBB"/>
<path d="M70.2596 6.92087C70.3237 6.82003 70.3885 6.71988 70.4526 6.61905C71.3901 5.1431 72.9628 4.50088 74.6265 4.90895C74.7737 4.94481 74.8889 4.96782 74.8876 5.1722C74.8797 6.47626 74.8817 7.78099 74.8791 9.08573C74.8791 9.12769 74.8568 9.16897 74.8391 9.23123C74.1954 9.23123 73.551 9.17438 72.919 9.24273C71.3666 9.41056 70.4736 10.3465 70.416 11.9544C70.3512 13.7511 70.3905 15.5519 70.3813 17.3506C70.3774 18.0531 70.4598 17.9726 69.7657 17.9746C68.5024 17.9786 67.2384 17.9692 65.9752 17.9807C65.6938 17.9834 65.578 17.9252 65.5794 17.5949C65.5911 13.6029 65.5898 9.61087 65.5807 5.61816C65.58 5.31499 65.6696 5.23987 65.951 5.24258C67.2031 5.25679 68.4559 5.25814 69.7088 5.24122C70.0051 5.23716 70.081 5.35559 70.0902 5.62967C70.1052 6.05262 70.1497 6.47423 70.1824 6.89583C70.2086 6.90395 70.2348 6.91207 70.2609 6.92019L70.2596 6.92087Z" fill="#BBBBBB"/>
</g>
</svg>
