<svg width="64" height="20" viewBox="0 0 64 20" fill="none" xmlns="http://www.w3.org/2000/svg">
<path d="M2 8.75C1.30964 8.75 0.75 9.30964 0.75 10C0.75 10.6904 1.30964 11.25 2 11.25L2 8.75ZM62.8839 10.8839C63.372 10.3957 63.372 9.60428 62.8839 9.11612L54.9289 1.16117C54.4408 0.673014 53.6493 0.673014 53.1612 1.16117C52.673 1.64933 52.673 2.44078 53.1612 2.92894L60.2322 10L53.1612 17.0711C52.673 17.5592 52.673 18.3507 53.1612 18.8388C53.6493 19.327 54.4408 19.327 54.9289 18.8388L62.8839 10.8839ZM2 11.25L62 11.25L62 8.75001L2 8.75L2 11.25Z" fill="#2A72F8"/>
</svg>
