<?xml version="1.0" encoding="UTF-8" standalone="no"?>
<!-- Generator: Adobe Illustrator 24.2.3, SVG Export Plug-In . SVG Version: 6.00 Build 0)  -->

<svg
   version="1.1"
   id="Layer_1"
   x="0px"
   y="0px"
   viewBox="0 0 688.1 95.5"
   style="enable-background:new 0 0 688.1 95.5;"
   xml:space="preserve"
   sodipodi:docname="circuit-logo.svg"
   inkscape:version="1.2.1 (9c6d41e410, 2022-07-14)"
   xmlns:inkscape="http://www.inkscape.org/namespaces/inkscape"
   xmlns:sodipodi="http://sodipodi.sourceforge.net/DTD/sodipodi-0.dtd"
   xmlns="http://www.w3.org/2000/svg"
   xmlns:svg="http://www.w3.org/2000/svg"><defs
   id="defs49" /><sodipodi:namedview
   id="namedview47"
   pagecolor="#ffffff"
   bordercolor="#000000"
   borderopacity="0.25"
   inkscape:showpageshadow="2"
   inkscape:pageopacity="0.0"
   inkscape:pagecheckerboard="0"
   inkscape:deskcolor="#d1d1d1"
   showgrid="false"
   inkscape:zoom="2.4712042"
   inkscape:cx="356.70869"
   inkscape:cy="47.75"
   inkscape:window-width="2560"
   inkscape:window-height="1494"
   inkscape:window-x="-11"
   inkscape:window-y="-11"
   inkscape:window-maximized="1"
   inkscape:current-layer="g44" />
<style
   type="text/css"
   id="style2">
	.st0{fill:url(#SVGID_1_);}
	.st1{fill:#080808;}
	.st2{fill:#2A72F8;}
	.st3{fill:#6209A8;}
	.st4{fill:#7614C4;}
	.st5{fill:#F31B31;}
	.st6{fill:none;}
	.st7{fill:#FFFFFF;}
	.st8{fill:url(#SVGID_2_);}
	.st9{fill-rule:evenodd;clip-rule:evenodd;fill:#F31B31;}
	.st10{fill-rule:evenodd;clip-rule:evenodd;fill:#2A72F8;}
	.st11{fill-rule:evenodd;clip-rule:evenodd;fill:#722BA1;}
	.st12{clip-path:url(#SVGID_5_);}
	.st13{fill:url(#SVGID_6_);}
	.st14{fill:url(#SVGID_7_);}
	.st15{fill:none;stroke:#575B60;stroke-width:0.75;}
	.st16{fill:none;stroke:#FFFFFF;stroke-width:0.75;}
	.st17{fill:none;stroke:#878E9C;stroke-width:0.75;}
	.st18{fill:none;stroke:#878E9C;stroke-width:0.25;}
	.st19{fill:url(#SVGID_8_);}
	.st20{fill:url(#SVGID_9_);}
	.st21{fill:url(#SVGID_10_);}
	.st22{fill:url(#SVGID_11_);}
	.st23{fill:#080808;stroke:#FFFFFF;stroke-width:0.5;}
	.st24{fill-rule:evenodd;clip-rule:evenodd;fill:#7614C4;}
	.st25{clip-path:url(#SVGID_14_);}
	.st26{fill:url(#SVGID_15_);}
	.st27{fill:#FFFFFF;stroke:#080808;stroke-width:0.75;}
	.st28{fill:#F2C9CF;}
	.st29{fill:#ED9AA6;}
	.st30{fill:#EA5972;}
	.st31{fill:#EF3C56;}
	.st32{fill:#DDBCF7;}
	.st33{fill:#BAA0D8;}
	.st34{fill:#8E50D6;}
	.st35{fill:#EEF3FF;}
	.st36{fill:#66696B;}
	.st37{fill:#323F48;}
	.st38{fill:#CBDBEF;}
	.st39{fill:#B3D6F2;}
	.st40{fill:#94BFEA;}
	.st41{fill:#659DEF;}
	.st42{fill:none;stroke:#575B60;stroke-miterlimit:10;}
	.st43{fill:none;stroke:#666666;stroke-width:0.165;stroke-miterlimit:10;stroke-dasharray:1.324,0.759;}
	.st44{fill:none;stroke:#666666;stroke-width:0.196;stroke-miterlimit:10;stroke-dasharray:1.571,0.901;}
	.st45{fill:#666666;}
	.st46{fill:none;stroke:#666666;stroke-width:0.259;stroke-miterlimit:10;}
	.st47{fill:none;stroke:#666666;stroke-width:0.259;stroke-miterlimit:10;stroke-dasharray:2.067,1.186;}
	.st48{fill:url(#SVGID_16_);}
	.st49{clip-path:url(#SVGID_18_);}
</style>
<g
   id="g44">
	<g
   id="g6"
   style="fill:#ffffff;fill-opacity:1;stroke:#000000;stroke-opacity:1">
		<path
   class="st1"
   d="M0,47.8c0,26.3,22.4,47.6,50,47.6V0.2C22.4,0.2,0,21.6,0,47.8z"
   id="path4"
   style="fill:#ffffff;fill-opacity:1;stroke:#000000;stroke-opacity:1" />
	</g>
	<g
   id="g10"
   style="stroke:#000000;stroke-opacity:1;fill:#ffffff;fill-opacity:1">
		<path
   class="st1"
   d="M61.2,8.6v77.7c20.2-2.5,33.6-19,33.6-38.9S81.4,11,61.2,8.6z"
   id="path8"
   style="stroke:#000000;stroke-opacity:1;fill:#ffffff;fill-opacity:1" />
	</g>
	<g
   id="g14"
   style="stroke:#000000;stroke-opacity:1;fill:#ffffff;fill-opacity:1">
		<path
   class="st1"
   d="M179.9,26.2v-8.8h16.3v60.3h-16.3v-8.4h-0.5c-4.1,5.2-10.9,8.4-22.3,8.4c-25.3,0-28.1-22-28.1-30.1    c0-8.8,2.7-30.1,28.2-30.1c11.1,0,18,3.5,22,8.8H179.9z M178.8,47.4c0-8.2-2.9-16.1-17-16.1c-15.6,0-17.3,11.4-17.3,16.1    c0,4.3,1.8,16.1,17.3,16.1C176,63.5,178.8,56.6,178.8,47.4z"
   id="path12"
   style="stroke:#000000;stroke-opacity:1;fill:#ffffff;fill-opacity:1" />
	</g>
	<g
   id="g18"
   style="fill:#ffffff;fill-opacity:1;stroke:#000000;stroke-opacity:1">
		<path
   class="st1"
   d="M222.5,52.7L222.5,52.7v1.2c0,8.8,3.9,7.5,19.5,6.6v15.9c0,0-3.2,1.1-19.5,1.1s-16.3-13.4-16.3-22.2V0.1h16.3    v17.1H242v14h-19.5V52.7z"
   id="path16"
   style="fill:#ffffff;fill-opacity:1;stroke:#000000;stroke-opacity:1" />
	</g>
	<g
   id="g22"
   style="fill:#ffffff;fill-opacity:1;stroke:#000000;stroke-opacity:1">
		<path
   class="st1"
   d="M315.2,46.9c0,21.1-15.3,30.7-33.6,30.7c-18.3,0-33.6-9.8-33.6-30.7c0-20.7,15.3-30.7,33.6-30.7    C299.8,16.2,315.2,26,315.2,46.9z M299.1,46.9c0-11.1-7.3-15.8-17.5-15.8c-10.2,0-17.5,4.5-17.5,15.8c0,11.3,7.3,15.8,17.5,15.8    C291.8,62.7,299.1,57.8,299.1,46.9z"
   id="path20"
   style="fill:#ffffff;fill-opacity:1;stroke:#000000;stroke-opacity:1" />
	</g>
	<g
   id="g26"
   style="fill:#ffffff;fill-opacity:1;stroke:#000000;stroke-opacity:1">
		<path
   class="st1"
   d="M429.7,47.5v30.1h-16.2V47.5c0-4.7,0.2-16.1-14.6-16.1c-14.1,0-15,9-15,17.1l-0.1-0.3v29.3h-16.2V47.5    c0-4.7,0.2-16.1-14.6-16.1c-14.1,0-15,9-15,17.1v29h-16.3V17.2h16.3v9h0.7c3.9-5.3,9.3-8.8,20-8.8c10.7,0,16.9,3.8,20.4,8.9l0,0    h0.8c3.9-5.3,8.7-8.8,23.8-8.8C429,17.4,429.7,38.7,429.7,47.5z"
   id="path24"
   style="fill:#ffffff;fill-opacity:1;stroke:#000000;stroke-opacity:1" />
	</g>
	<g
   id="g30"
   style="fill:#ffffff;fill-opacity:1;stroke:#000000;stroke-opacity:1">
		<path
   class="st1"
   d="M456.3,52.7L456.3,52.7v1.2c0,8.8,3.9,7.5,19.5,6.6v15.9c0,0-3.2,1.1-19.5,1.1c-16.3,0-16.3-13.4-16.3-22.2    V0.1h16.3v17.1h19.5v14h-19.5V52.7z"
   id="path28"
   style="fill:#ffffff;fill-opacity:1;stroke:#000000;stroke-opacity:1" />
	</g>
	<g
   id="g34"
   style="fill:#ffffff;fill-opacity:1;stroke:#000000;stroke-opacity:1">
		<path
   class="st1"
   d="M544.1,51.3h-48c1.1,8,5.9,12,16.5,12c9.8,0,14.6-2.7,16.1-6.7h15.8c-1.7,12.9-12.1,21-31.9,21    c-20.6,0-32.4-10.4-32.4-30.4c0-19.7,12-30.4,32.4-30.4c8.5,0,15.3,2.1,20.4,5.7c0,0,0,0,0,0c11.6,7.8,12.7,20.6,11.7,28.8    L544.1,51.3L544.1,51.3z M496.7,40.5h31.8c-1.3-4.5-4.3-9.4-15.9-9.4C503.5,31,498.6,34.4,496.7,40.5z"
   id="path32"
   style="fill:#ffffff;fill-opacity:1;stroke:#000000;stroke-opacity:1" />
	</g>
	<g
   id="g38"
   style="fill:#ffffff;fill-opacity:1;stroke:#000000;stroke-opacity:1">
		<path
   class="st1"
   d="M615.2,55c-1.2,14.5-14.1,22.6-31.3,22.6c-17.7,0-32.1-10.3-32.1-30.2c0-19.5,14.4-30.2,32.1-30.2    c17.2,0,30,8.3,31.3,22.6h-16c-1.3-4.5-5.3-7.9-15.3-7.9c-10.6,0-16.1,5.2-16.1,15.5c0,10.7,5.6,15.5,16.1,15.5    c10.3,0,14.1-3.7,15.3-7.9H615.2z"
   id="path36"
   style="fill:#ffffff;fill-opacity:1;stroke:#000000;stroke-opacity:1" />
	</g>
	<g
   id="g42"
   style="fill:#ffffff;fill-opacity:1;stroke:#000000;stroke-opacity:1">
		<path
   class="st1"
   d="M688.1,47.4v30.1h-16.2V47.4c0-4.7,0-16.1-15.6-16.1c-14.1,0-17.2,9-17.2,17.2v29.1h-16.3V0H639v26.2h0.8    c3.9-5.3,10.4-8.8,21.2-8.8C686.4,17.3,688.1,38.7,688.1,47.4z"
   id="path40"
   style="fill:#ffffff;fill-opacity:1;stroke:#000000;stroke-opacity:1" />
	</g>
</g>
</svg>
