<svg width="38" height="38" viewBox="0 0 38 38" fill="none" xmlns="http://www.w3.org/2000/svg">
<path d="M15.691 4C9.22656 4 4 9.22656 4 15.691C4 22.1554 9.22656 27.382 15.691 27.382C17.9994 27.382 20.1336 26.7057 21.9445 25.555L30.3896 34L33.3123 31.0773L24.9727 22.7606C26.4719 20.7938 27.3797 18.357 27.3797 15.691C27.3797 9.22656 22.1531 4 15.6887 4H15.691ZM15.691 6.75082C20.6425 6.75082 24.6312 10.7395 24.6312 15.691C24.6312 20.6425 20.6425 24.6312 15.691 24.6312C10.7395 24.6312 6.75082 20.6425 6.75082 15.691C6.75082 10.7395 10.7395 6.75082 15.691 6.75082Z" fill="#2A72F8"/>
</svg>
