<svg width="38" height="38" viewBox="0 0 38 38" fill="none" xmlns="http://www.w3.org/2000/svg">
<path d="M7 14.0679C7 12.5692 7 11.0726 7 9.57394C7 9.4549 7.02763 9.39112 7.15093 9.33798C8.61349 8.69386 10.0739 8.03911 11.5344 7.38861C12.7801 6.83377 14.0258 6.27681 15.2737 5.72409C16.5045 5.17776 17.7417 4.65056 18.9598 4.08084C19.2617 3.94054 19.4828 4.00219 19.7443 4.11911C20.9836 4.67819 22.2293 5.22453 23.4708 5.77937C24.4529 6.21728 25.4329 6.65733 26.4151 7.09525C27.5439 7.59694 28.6748 8.0965 29.8036 8.5982C30.3755 8.85117 30.943 9.10839 31.517 9.35924C31.6042 9.3975 31.6169 9.4549 31.6148 9.53355C31.6148 9.93958 31.6148 10.3456 31.6148 10.7495C31.6148 13.1134 31.6148 15.4773 31.6105 17.8434C31.6084 18.7617 31.517 19.6737 31.3703 20.5793C31.213 21.5593 30.9686 22.5159 30.6369 23.4491C30.0013 25.2369 29.0702 26.8611 27.8734 28.3343C26.9359 29.4864 25.8645 30.4983 24.6761 31.3869C23.6558 32.148 22.5737 32.8112 21.4024 33.3108C20.8135 33.5616 20.1928 33.7423 19.5869 33.957C19.3106 34.0548 19.0512 33.9655 18.7919 33.889C17.2592 33.4405 15.8668 32.7071 14.5509 31.8142C13.3838 31.0234 12.3252 30.1051 11.3749 29.0655C10.2801 27.8666 9.37028 26.5379 8.66238 25.0754C8.28612 24.2995 7.96087 23.5044 7.73128 22.6753C7.53995 21.9908 7.39115 21.2914 7.25722 20.592C7.05527 19.5483 7.00213 18.4896 7.00638 17.4288C7.01063 16.3085 7.00638 15.1882 7.00638 14.0679H7ZM28.8597 14.999C28.8597 14.999 28.8661 14.999 28.8704 14.999C28.8704 13.7916 28.8683 12.5841 28.8746 11.3766C28.8746 11.2215 28.8215 11.1513 28.6833 11.0918C28.0264 10.8069 27.3717 10.5136 26.7191 10.2223C25.9814 9.89494 25.2416 9.56544 24.504 9.23594C23.609 8.83841 22.7161 8.44089 21.8212 8.04548C21.0112 7.68622 20.1992 7.32696 19.3871 6.97195C19.3404 6.95069 19.2681 6.95282 19.2213 6.97195C18.5517 7.26531 17.8842 7.56292 17.2167 7.85841C16.377 8.23256 15.5373 8.60457 14.6976 8.97872C13.8579 9.35073 13.0182 9.72488 12.1785 10.0969C11.4323 10.4285 10.6862 10.7644 9.93575 11.0896C9.79119 11.1513 9.73167 11.2257 9.73167 11.3936C9.73805 13.4217 9.73592 15.4497 9.73592 17.4777C9.73592 18.5768 9.82946 19.6652 10.0612 20.743C10.2376 21.5593 10.4778 22.3543 10.7967 23.1239C11.292 24.3186 11.9446 25.4261 12.7482 26.4423C13.945 27.9537 15.3778 29.1931 17.0402 30.1667C17.695 30.5515 18.3795 30.8746 19.0959 31.1318C19.2319 31.1807 19.3616 31.185 19.4977 31.1361C20.2268 30.8767 20.9241 30.5451 21.5916 30.154C22.9394 29.361 24.1383 28.3874 25.1906 27.231C26.2684 26.0469 27.1293 24.7225 27.7543 23.2472C28.1455 22.3267 28.4325 21.3743 28.6132 20.388C28.745 19.6652 28.8449 18.9403 28.8534 18.2069C28.8661 17.1376 28.8576 16.0683 28.8576 14.999H28.8597Z" fill="#2A72F8"/>
</svg>
